<svg width="13" height="13" viewBox="0 0 13 13" fill="none" xmlns="http://www.w3.org/2000/svg">
<path fill-rule="evenodd" clip-rule="evenodd" d="M2.29766 4.19467C2.47182 4.01885 2.75416 4.01764 2.92831 4.19587L6.81564 8.16415C6.9898 8.34178 6.98921 8.62876 6.81446 8.80518C6.72767 8.89279 6.61355 8.9375 6.50002 8.9375C6.3853 8.9375 6.27118 8.89279 6.1844 8.80398L2.29707 4.8357C2.12291 4.65807 2.12351 4.37109 2.29766 4.19467ZM10.0713 4.19593C10.2454 4.0177 10.5277 4.01891 10.7019 4.19473C10.8767 4.37115 10.8772 4.65813 10.7037 4.83576L8.12224 7.47121C8.03546 7.56002 7.92074 7.60473 7.80662 7.60473C7.69309 7.60473 7.57896 7.56002 7.49218 7.47242C7.31743 7.296 7.31684 7.00901 7.4904 6.83138L10.0713 4.19593Z" fill="white"/>
</svg>
